<mxfile host="app.diagrams.net" modified="2023-12-20T20:15:37.244Z" agent="Mozilla/5.0 (Windows NT 10.0; Win64; x64) AppleWebKit/537.36 (KHTML, like Gecko) Chrome/120.0.0.0 Safari/537.36" etag="Fe0zf3zleUwqTbGDCGNZ" version="22.1.11" type="github">
  <diagram name="Page-1" id="tgH1u1JrCCDi874WLm_d">
    <mxGraphModel dx="955" dy="506" grid="1" gridSize="10" guides="1" tooltips="1" connect="1" arrows="1" fold="1" page="1" pageScale="1" pageWidth="850" pageHeight="1100" math="0" shadow="0">
      <root>
        <mxCell id="0" />
        <mxCell id="1" parent="0" />
        <mxCell id="HeLbQgJlljO21HpzN_nb-9" style="edgeStyle=orthogonalEdgeStyle;rounded=0;orthogonalLoop=1;jettySize=auto;html=1;exitX=0.5;exitY=1;exitDx=0;exitDy=0;entryX=0.5;entryY=0;entryDx=0;entryDy=0;" edge="1" parent="1" source="HeLbQgJlljO21HpzN_nb-3" target="HeLbQgJlljO21HpzN_nb-6">
          <mxGeometry relative="1" as="geometry" />
        </mxCell>
        <mxCell id="HeLbQgJlljO21HpzN_nb-3" value="User enters login name and password" style="rounded=1;whiteSpace=wrap;html=1;arcSize=40;fontColor=#000000;fillColor=#ffffc0;strokeColor=#ff0000;" vertex="1" parent="1">
          <mxGeometry x="315" y="70" width="120" height="40" as="geometry" />
        </mxCell>
        <mxCell id="HeLbQgJlljO21HpzN_nb-16" style="edgeStyle=orthogonalEdgeStyle;rounded=0;orthogonalLoop=1;jettySize=auto;html=1;exitX=1;exitY=0.5;exitDx=0;exitDy=0;entryX=0.5;entryY=1;entryDx=0;entryDy=0;" edge="1" parent="1" source="HeLbQgJlljO21HpzN_nb-6" target="HeLbQgJlljO21HpzN_nb-13">
          <mxGeometry relative="1" as="geometry" />
        </mxCell>
        <mxCell id="HeLbQgJlljO21HpzN_nb-20" value="[No]" style="edgeLabel;html=1;align=center;verticalAlign=middle;resizable=0;points=[];" vertex="1" connectable="0" parent="HeLbQgJlljO21HpzN_nb-16">
          <mxGeometry x="-0.3989" y="3" relative="1" as="geometry">
            <mxPoint x="7" y="-7" as="offset" />
          </mxGeometry>
        </mxCell>
        <mxCell id="HeLbQgJlljO21HpzN_nb-23" style="edgeStyle=orthogonalEdgeStyle;rounded=0;orthogonalLoop=1;jettySize=auto;html=1;exitX=0.5;exitY=1;exitDx=0;exitDy=0;entryX=0.5;entryY=0;entryDx=0;entryDy=0;" edge="1" parent="1" source="HeLbQgJlljO21HpzN_nb-6" target="HeLbQgJlljO21HpzN_nb-21">
          <mxGeometry relative="1" as="geometry" />
        </mxCell>
        <mxCell id="HeLbQgJlljO21HpzN_nb-24" value="[Yes]" style="edgeLabel;html=1;align=center;verticalAlign=middle;resizable=0;points=[];" vertex="1" connectable="0" parent="HeLbQgJlljO21HpzN_nb-23">
          <mxGeometry x="-0.3143" y="2" relative="1" as="geometry">
            <mxPoint x="13" as="offset" />
          </mxGeometry>
        </mxCell>
        <mxCell id="HeLbQgJlljO21HpzN_nb-6" value="" style="rhombus;whiteSpace=wrap;html=1;fontColor=#000000;fillColor=#ffffc0;strokeColor=#ff0000;" vertex="1" parent="1">
          <mxGeometry x="335" y="160" width="80" height="40" as="geometry" />
        </mxCell>
        <mxCell id="HeLbQgJlljO21HpzN_nb-19" style="edgeStyle=orthogonalEdgeStyle;rounded=0;orthogonalLoop=1;jettySize=auto;html=1;exitX=0.5;exitY=0;exitDx=0;exitDy=0;entryX=1;entryY=0.5;entryDx=0;entryDy=0;" edge="1" parent="1" source="HeLbQgJlljO21HpzN_nb-13" target="HeLbQgJlljO21HpzN_nb-3">
          <mxGeometry relative="1" as="geometry" />
        </mxCell>
        <mxCell id="HeLbQgJlljO21HpzN_nb-13" value="Invalid login/password" style="rounded=1;whiteSpace=wrap;html=1;arcSize=40;fontColor=#000000;fillColor=#ffffc0;strokeColor=#ff0000;" vertex="1" parent="1">
          <mxGeometry x="450" y="110" width="120" height="40" as="geometry" />
        </mxCell>
        <mxCell id="HeLbQgJlljO21HpzN_nb-27" style="edgeStyle=orthogonalEdgeStyle;rounded=0;orthogonalLoop=1;jettySize=auto;html=1;exitX=0.5;exitY=1;exitDx=0;exitDy=0;entryX=0.5;entryY=0;entryDx=0;entryDy=0;" edge="1" parent="1" source="HeLbQgJlljO21HpzN_nb-21" target="HeLbQgJlljO21HpzN_nb-25">
          <mxGeometry relative="1" as="geometry" />
        </mxCell>
        <mxCell id="HeLbQgJlljO21HpzN_nb-21" value="User succesfully logs in&amp;nbsp;" style="rounded=1;whiteSpace=wrap;html=1;arcSize=40;fontColor=#000000;fillColor=#ffffc0;strokeColor=#ff0000;" vertex="1" parent="1">
          <mxGeometry x="315" y="230" width="120" height="40" as="geometry" />
        </mxCell>
        <mxCell id="HeLbQgJlljO21HpzN_nb-32" style="edgeStyle=orthogonalEdgeStyle;rounded=0;orthogonalLoop=1;jettySize=auto;html=1;exitX=0.5;exitY=1;exitDx=0;exitDy=0;entryX=0.5;entryY=0;entryDx=0;entryDy=0;" edge="1" parent="1" source="HeLbQgJlljO21HpzN_nb-25" target="HeLbQgJlljO21HpzN_nb-31">
          <mxGeometry relative="1" as="geometry" />
        </mxCell>
        <mxCell id="HeLbQgJlljO21HpzN_nb-25" value="User&#39;s settings are displayed" style="rounded=1;whiteSpace=wrap;html=1;arcSize=40;fontColor=#000000;fillColor=#ffffc0;strokeColor=#ff0000;" vertex="1" parent="1">
          <mxGeometry x="315" y="310" width="120" height="40" as="geometry" />
        </mxCell>
        <mxCell id="HeLbQgJlljO21HpzN_nb-30" style="edgeStyle=orthogonalEdgeStyle;rounded=0;orthogonalLoop=1;jettySize=auto;html=1;exitX=0.5;exitY=1;exitDx=0;exitDy=0;entryX=0.5;entryY=0;entryDx=0;entryDy=0;" edge="1" parent="1" source="HeLbQgJlljO21HpzN_nb-28" target="HeLbQgJlljO21HpzN_nb-3">
          <mxGeometry relative="1" as="geometry" />
        </mxCell>
        <mxCell id="HeLbQgJlljO21HpzN_nb-28" value="" style="ellipse;html=1;shape=startState;fillColor=#000000;strokeColor=#ff0000;" vertex="1" parent="1">
          <mxGeometry x="360" width="30" height="30" as="geometry" />
        </mxCell>
        <mxCell id="HeLbQgJlljO21HpzN_nb-31" value="" style="ellipse;html=1;shape=endState;fillColor=#000000;strokeColor=#ff0000;" vertex="1" parent="1">
          <mxGeometry x="360" y="380" width="30" height="30" as="geometry" />
        </mxCell>
        <mxCell id="HeLbQgJlljO21HpzN_nb-33" value="Correct login and password" style="shape=note;whiteSpace=wrap;html=1;backgroundOutline=1;darkOpacity=0.05;" vertex="1" parent="1">
          <mxGeometry x="200" y="150" width="90" height="50" as="geometry" />
        </mxCell>
        <mxCell id="HeLbQgJlljO21HpzN_nb-34" style="edgeStyle=orthogonalEdgeStyle;rounded=0;orthogonalLoop=1;jettySize=auto;html=1;exitX=0;exitY=0.5;exitDx=0;exitDy=0;entryX=0;entryY=0;entryDx=90;entryDy=30;entryPerimeter=0;" edge="1" parent="1" source="HeLbQgJlljO21HpzN_nb-6" target="HeLbQgJlljO21HpzN_nb-33">
          <mxGeometry relative="1" as="geometry" />
        </mxCell>
        <mxCell id="HeLbQgJlljO21HpzN_nb-36" value="User logs into the system" style="shape=note;whiteSpace=wrap;html=1;backgroundOutline=1;darkOpacity=0.05;" vertex="1" parent="1">
          <mxGeometry x="470" y="365" width="90" height="60" as="geometry" />
        </mxCell>
        <mxCell id="HeLbQgJlljO21HpzN_nb-37" style="edgeStyle=orthogonalEdgeStyle;rounded=0;orthogonalLoop=1;jettySize=auto;html=1;entryX=0;entryY=0.5;entryDx=0;entryDy=0;entryPerimeter=0;" edge="1" parent="1" source="HeLbQgJlljO21HpzN_nb-31" target="HeLbQgJlljO21HpzN_nb-36">
          <mxGeometry relative="1" as="geometry" />
        </mxCell>
        <mxCell id="HeLbQgJlljO21HpzN_nb-38" value="Apply for Loan" style="swimlane;html=1;childLayout=stackLayout;resizeParent=1;resizeParentMax=0;startSize=20;whiteSpace=wrap;" vertex="1" parent="1">
          <mxGeometry x="245" y="540" width="590" height="540" as="geometry">
            <mxRectangle x="245" y="550" width="70" height="30" as="alternateBounds" />
          </mxGeometry>
        </mxCell>
        <mxCell id="HeLbQgJlljO21HpzN_nb-39" value="Customer" style="swimlane;html=1;startSize=20;" vertex="1" parent="HeLbQgJlljO21HpzN_nb-38">
          <mxGeometry y="20" width="140" height="520" as="geometry">
            <mxRectangle y="20" width="40" height="460" as="alternateBounds" />
          </mxGeometry>
        </mxCell>
        <mxCell id="HeLbQgJlljO21HpzN_nb-55" style="edgeStyle=orthogonalEdgeStyle;rounded=0;orthogonalLoop=1;jettySize=auto;html=1;exitX=0.5;exitY=1;exitDx=0;exitDy=0;entryX=0.5;entryY=0;entryDx=0;entryDy=0;" edge="1" parent="HeLbQgJlljO21HpzN_nb-39" source="HeLbQgJlljO21HpzN_nb-49" target="HeLbQgJlljO21HpzN_nb-51">
          <mxGeometry relative="1" as="geometry" />
        </mxCell>
        <mxCell id="HeLbQgJlljO21HpzN_nb-49" value="" style="ellipse;html=1;shape=startState;fillColor=#000000;strokeColor=#ff0000;" vertex="1" parent="HeLbQgJlljO21HpzN_nb-39">
          <mxGeometry x="55" y="40" width="30" height="30" as="geometry" />
        </mxCell>
        <mxCell id="HeLbQgJlljO21HpzN_nb-51" value="Apply for loan" style="rounded=1;whiteSpace=wrap;html=1;arcSize=40;fontColor=#000000;fillColor=#ffffc0;strokeColor=#ff0000;" vertex="1" parent="HeLbQgJlljO21HpzN_nb-39">
          <mxGeometry x="10" y="90" width="120" height="40" as="geometry" />
        </mxCell>
        <mxCell id="HeLbQgJlljO21HpzN_nb-86" value="" style="ellipse;html=1;shape=endState;fillColor=#000000;strokeColor=#ff0000;" vertex="1" parent="HeLbQgJlljO21HpzN_nb-39">
          <mxGeometry x="55" y="470" width="30" height="30" as="geometry" />
        </mxCell>
        <mxCell id="HeLbQgJlljO21HpzN_nb-40" value="Bank" style="swimlane;html=1;startSize=20;" vertex="1" parent="HeLbQgJlljO21HpzN_nb-38">
          <mxGeometry x="140" y="20" width="170" height="520" as="geometry" />
        </mxCell>
        <mxCell id="HeLbQgJlljO21HpzN_nb-56" value="Application conf" style="rounded=1;whiteSpace=wrap;html=1;arcSize=40;fontColor=#000000;fillColor=#ffffc0;strokeColor=#ff0000;" vertex="1" parent="HeLbQgJlljO21HpzN_nb-40">
          <mxGeometry x="30" y="90" width="120" height="40" as="geometry" />
        </mxCell>
        <mxCell id="HeLbQgJlljO21HpzN_nb-85" style="edgeStyle=orthogonalEdgeStyle;rounded=0;orthogonalLoop=1;jettySize=auto;html=1;exitX=0.5;exitY=1;exitDx=0;exitDy=0;entryX=0.5;entryY=0;entryDx=0;entryDy=0;" edge="1" parent="HeLbQgJlljO21HpzN_nb-40" source="HeLbQgJlljO21HpzN_nb-77" target="HeLbQgJlljO21HpzN_nb-82">
          <mxGeometry relative="1" as="geometry" />
        </mxCell>
        <mxCell id="HeLbQgJlljO21HpzN_nb-77" value="Risk assessment" style="rounded=1;whiteSpace=wrap;html=1;arcSize=40;fontColor=#000000;fillColor=#ffffc0;strokeColor=#ff0000;" vertex="1" parent="HeLbQgJlljO21HpzN_nb-40">
          <mxGeometry x="25" y="300" width="120" height="40" as="geometry" />
        </mxCell>
        <mxCell id="HeLbQgJlljO21HpzN_nb-82" value="" style="rhombus;whiteSpace=wrap;html=1;fontColor=#000000;fillColor=#ffffc0;strokeColor=#ff0000;" vertex="1" parent="HeLbQgJlljO21HpzN_nb-40">
          <mxGeometry x="40" y="370" width="80" height="40" as="geometry" />
        </mxCell>
        <mxCell id="HeLbQgJlljO21HpzN_nb-41" value="Credit Rating Agency" style="swimlane;html=1;startSize=20;" vertex="1" parent="HeLbQgJlljO21HpzN_nb-38">
          <mxGeometry x="310" y="20" width="140" height="520" as="geometry" />
        </mxCell>
        <mxCell id="HeLbQgJlljO21HpzN_nb-63" value="Credit check" style="rounded=1;whiteSpace=wrap;html=1;arcSize=40;fontColor=#000000;fillColor=#ffffc0;strokeColor=#ff0000;" vertex="1" parent="HeLbQgJlljO21HpzN_nb-41">
          <mxGeometry x="15" y="180" width="120" height="40" as="geometry" />
        </mxCell>
        <mxCell id="HeLbQgJlljO21HpzN_nb-48" value="Property Agent" style="swimlane;html=1;startSize=20;" vertex="1" parent="HeLbQgJlljO21HpzN_nb-38">
          <mxGeometry x="450" y="20" width="140" height="520" as="geometry" />
        </mxCell>
        <mxCell id="HeLbQgJlljO21HpzN_nb-67" style="edgeStyle=orthogonalEdgeStyle;rounded=0;orthogonalLoop=1;jettySize=auto;html=1;exitX=0.75;exitY=0.5;exitDx=0;exitDy=0;exitPerimeter=0;" edge="1" parent="HeLbQgJlljO21HpzN_nb-48" source="HeLbQgJlljO21HpzN_nb-60" target="HeLbQgJlljO21HpzN_nb-65">
          <mxGeometry relative="1" as="geometry" />
        </mxCell>
        <mxCell id="HeLbQgJlljO21HpzN_nb-60" value="" style="shape=line;html=1;strokeWidth=6;strokeColor=#ff0000;" vertex="1" parent="HeLbQgJlljO21HpzN_nb-48">
          <mxGeometry x="-115" y="140" width="200" height="10" as="geometry" />
        </mxCell>
        <mxCell id="HeLbQgJlljO21HpzN_nb-65" value="Property value assessment" style="rounded=1;whiteSpace=wrap;html=1;arcSize=40;fontColor=#000000;fillColor=#ffffc0;strokeColor=#ff0000;" vertex="1" parent="HeLbQgJlljO21HpzN_nb-48">
          <mxGeometry x="20" y="180" width="120" height="40" as="geometry" />
        </mxCell>
        <mxCell id="HeLbQgJlljO21HpzN_nb-71" value="" style="shape=line;html=1;strokeWidth=6;strokeColor=#ff0000;" vertex="1" parent="HeLbQgJlljO21HpzN_nb-48">
          <mxGeometry x="-115" y="255" width="200" height="5" as="geometry" />
        </mxCell>
        <mxCell id="HeLbQgJlljO21HpzN_nb-76" style="edgeStyle=orthogonalEdgeStyle;rounded=0;orthogonalLoop=1;jettySize=auto;html=1;exitX=0.5;exitY=1;exitDx=0;exitDy=0;entryX=0.75;entryY=0.5;entryDx=0;entryDy=0;entryPerimeter=0;" edge="1" parent="HeLbQgJlljO21HpzN_nb-48" source="HeLbQgJlljO21HpzN_nb-65" target="HeLbQgJlljO21HpzN_nb-71">
          <mxGeometry relative="1" as="geometry" />
        </mxCell>
        <mxCell id="HeLbQgJlljO21HpzN_nb-57" value="" style="edgeStyle=orthogonalEdgeStyle;rounded=0;orthogonalLoop=1;jettySize=auto;html=1;" edge="1" parent="HeLbQgJlljO21HpzN_nb-38" source="HeLbQgJlljO21HpzN_nb-51" target="HeLbQgJlljO21HpzN_nb-56">
          <mxGeometry relative="1" as="geometry" />
        </mxCell>
        <mxCell id="HeLbQgJlljO21HpzN_nb-62" style="edgeStyle=orthogonalEdgeStyle;rounded=0;orthogonalLoop=1;jettySize=auto;html=1;exitX=1;exitY=0.5;exitDx=0;exitDy=0;" edge="1" parent="HeLbQgJlljO21HpzN_nb-38" source="HeLbQgJlljO21HpzN_nb-56" target="HeLbQgJlljO21HpzN_nb-60">
          <mxGeometry relative="1" as="geometry" />
        </mxCell>
        <mxCell id="HeLbQgJlljO21HpzN_nb-68" style="edgeStyle=orthogonalEdgeStyle;rounded=0;orthogonalLoop=1;jettySize=auto;html=1;exitX=0.25;exitY=0.5;exitDx=0;exitDy=0;exitPerimeter=0;" edge="1" parent="HeLbQgJlljO21HpzN_nb-38" source="HeLbQgJlljO21HpzN_nb-60" target="HeLbQgJlljO21HpzN_nb-63">
          <mxGeometry relative="1" as="geometry" />
        </mxCell>
        <mxCell id="HeLbQgJlljO21HpzN_nb-75" style="edgeStyle=orthogonalEdgeStyle;rounded=0;orthogonalLoop=1;jettySize=auto;html=1;exitX=0.5;exitY=1;exitDx=0;exitDy=0;entryX=0.25;entryY=0.5;entryDx=0;entryDy=0;entryPerimeter=0;" edge="1" parent="HeLbQgJlljO21HpzN_nb-38" source="HeLbQgJlljO21HpzN_nb-63" target="HeLbQgJlljO21HpzN_nb-71">
          <mxGeometry relative="1" as="geometry" />
        </mxCell>
        <mxCell id="HeLbQgJlljO21HpzN_nb-81" style="edgeStyle=orthogonalEdgeStyle;rounded=0;orthogonalLoop=1;jettySize=auto;html=1;" edge="1" parent="HeLbQgJlljO21HpzN_nb-38" source="HeLbQgJlljO21HpzN_nb-71" target="HeLbQgJlljO21HpzN_nb-77">
          <mxGeometry relative="1" as="geometry">
            <Array as="points">
              <mxPoint x="435" y="300" />
              <mxPoint x="225" y="300" />
            </Array>
          </mxGeometry>
        </mxCell>
        <mxCell id="HeLbQgJlljO21HpzN_nb-87" style="edgeStyle=orthogonalEdgeStyle;rounded=0;orthogonalLoop=1;jettySize=auto;html=1;exitX=0;exitY=0.5;exitDx=0;exitDy=0;entryX=0.5;entryY=0;entryDx=0;entryDy=0;" edge="1" parent="HeLbQgJlljO21HpzN_nb-38" source="HeLbQgJlljO21HpzN_nb-82" target="HeLbQgJlljO21HpzN_nb-86">
          <mxGeometry relative="1" as="geometry" />
        </mxCell>
        <mxCell id="HeLbQgJlljO21HpzN_nb-89" value="[Loan Rejected]" style="edgeLabel;html=1;align=center;verticalAlign=middle;resizable=0;points=[];" vertex="1" connectable="0" parent="HeLbQgJlljO21HpzN_nb-87">
          <mxGeometry x="-0.0967" relative="1" as="geometry">
            <mxPoint x="20" as="offset" />
          </mxGeometry>
        </mxCell>
        <mxCell id="HeLbQgJlljO21HpzN_nb-88" style="edgeStyle=orthogonalEdgeStyle;rounded=0;orthogonalLoop=1;jettySize=auto;html=1;exitX=0.5;exitY=1;exitDx=0;exitDy=0;entryX=1;entryY=0.5;entryDx=0;entryDy=0;" edge="1" parent="HeLbQgJlljO21HpzN_nb-38" source="HeLbQgJlljO21HpzN_nb-82" target="HeLbQgJlljO21HpzN_nb-86">
          <mxGeometry relative="1" as="geometry" />
        </mxCell>
        <mxCell id="HeLbQgJlljO21HpzN_nb-90" value="[Loan Approved]" style="edgeLabel;html=1;align=center;verticalAlign=middle;resizable=0;points=[];" vertex="1" connectable="0" parent="HeLbQgJlljO21HpzN_nb-88">
          <mxGeometry x="0.1766" y="2" relative="1" as="geometry">
            <mxPoint as="offset" />
          </mxGeometry>
        </mxCell>
      </root>
    </mxGraphModel>
  </diagram>
</mxfile>
